<?xml version="1.0" encoding="UTF-8"?>
<svg xmlns="http://www.w3.org/2000/svg" version="1.1" viewBox="0 0 64 64" fill="none" stroke-linecap="round" stroke-linejoin="round">
  <title>방어구</title>
  <!-- Palette: outline #6E6558, tan #DCCDAF, tan-deep #C9B894, cream #F7F3EA -->
  <path d="M19.4 13.3C23.6 10.7 27.5 9.2 31.9 9.1C36.5 9.1 40.3 10.8 44.3 13.5L53.4 17.5L55.9 29.3L46.8 31.2L44.9 53.2C36.7 55.4 27.6 55.3 19.2 52.9L17.4 31.1L8.1 29L10.6 17.3Z" fill="#DCCDAF" stroke="#6E6558" stroke-width="3.4"/>
  <path d="M10.6 17.3L19.4 13.3L17.4 31.1L8.1 29Z" fill="#C9B894" stroke="#6E6558" stroke-width="3"/>
  <path d="M44.3 13.5L53.4 17.5L55.9 29.3L46.8 31.2Z" fill="#C9B894" stroke="#6E6558" stroke-width="3"/>
  <path d="M25.3 11.2C26.2 17.6 37.3 17.8 38.7 11.3" stroke="#6E6558" stroke-width="3"/>
  <path d="M32 17.2L32.1 53.8" stroke="#6E6558" stroke-width="2.7"/>
  <path d="M23 24.2L27.4 20.8" stroke="#F7F3EA" stroke-width="2.8"/>
</svg>
